<svg height="30px" viewBox="0 0 131 23" version="1.1" xmlns="http://www.w3.org/2000/svg" xmlns:xlink="http://www.w3.org/1999/xlink"> <g stroke="none" stroke-width="1" fill="none" fill-rule="evenodd"> <g transform="translate(0.086020, -2.736420)" fill="#4d484e"> <g transform="translate(122.067998, 13.178075) rotate(35.000000) translate(-122.067998, -13.178075) translate(112.567998, 4.678075)" fill-rule="nonzero"> <path d="M6.39551554,7.32219989 C7.89805668,7.32219989 9.12016717,5.68214363 9.12016717,3.66570467 C9.12016717,1.6494104 7.89800843,0.00887194555 6.39551554,0.00887194555 C4.89340836,0.00887194555 3.67115321,1.64936218 3.67115321,3.66570467 C3.67115321,5.68214363 4.89340836,7.32219989 6.39551554,7.32219989 Z"></path> <path d="M14.47699,10.8791268 C14.4211064,10.802992 14.3675372,10.7311968 14.3388963,10.6694789 C13.7296733,9.36539931 12.0596742,7.82799724 9.35411651,7.78976107 L9.25001581,7.78918245 C6.58602127,7.78918245 4.92846221,9.24519411 4.26528426,10.6083878 C4.24238113,10.6550138 4.19199429,10.7155262 4.13861794,10.7795103 C4.07545354,10.8544879 4.0129642,10.9312013 3.95953967,11.0145686 C3.39930523,11.8860926 3.11366715,12.8673587 3.1558089,13.77736 C3.19997575,14.7434859 3.60446896,15.5194919 4.29281622,15.962173 C4.57093244,16.1408173 4.87103562,16.2308387 5.18589327,16.2308387 C5.83513645,16.2308387 6.4295568,15.8651602 7.11838623,15.4416212 C7.55634211,15.171702 8.00871489,14.8932 8.51118525,14.6847575 C8.56750281,14.6661939 8.79826983,14.6378423 9.17566504,14.6378423 C9.62442155,14.6378423 9.9467046,14.677766 10.0155586,14.701537 C10.5060711,14.91808 10.9368427,15.2021269 11.3534866,15.4762893 C11.9922184,15.8972728 12.5953179,16.2945334 13.2496721,16.2945334 C13.5304884,16.2945334 13.8026739,16.2204238 14.0594782,16.0745188 C15.4761929,15.2696309 15.746064,13.0613361 14.6614204,11.152132 C14.6069833,11.0563247 14.5421313,10.9668819 14.47699,10.8791268 Z"></path> <path d="M12.1890888,7.32219989 C13.6909067,7.32219989 14.9133065,5.68214363 14.9133065,3.66570467 C14.9133065,1.6494104 13.6909067,0.00887194555 12.1890888,0.00887194555 C10.6864031,0.00887194555 9.46429259,1.64936218 9.46429259,3.66570467 C9.46429259,5.68214363 10.6864031,7.32219989 12.1890888,7.32219989 Z"></path> <path d="M16.6635871,5.44457797 C15.4593651,5.44457797 14.5169138,6.69344899 14.5169138,8.28779545 C14.5169138,9.88141869 15.4599437,11.1304343 16.6635871,11.1304343 C17.867134,11.1304343 18.8107426,9.88141869 18.8107426,8.28779545 C18.8107426,6.6934972 17.8677126,5.44457797 16.6635871,5.44457797 Z"></path> <path d="M4.29363593,8.28779545 C4.29363593,6.6934972 3.35060596,5.44457797 2.14691439,5.44457797 C0.943174605,5.44457797 0,6.6934972 0,8.28779545 C0,9.88141869 0.943174605,11.1304343 2.14691439,11.1304343 C3.35065418,11.1304343 4.29363593,9.88141869 4.29363593,8.28779545 Z"></path> </g> <path d="M4.86409171,8.59765625 L4.86409171,20 L0.106279206,20 L0.106279206,4.00390625 L6.30549796,4.00390625 C9.02426155,4.00390625 11.1531465,4.62108758 12.6922167,5.85546875 C14.5203508,7.33203863 15.4344042,9.33592484 15.4344042,11.8671875 C15.4344042,14.2890746 14.653162,16.2656173 13.0906542,17.796875 C11.5281464,19.3281327 9.51644776,20.09375 7.05549796,20.09375 C6.76643401,20.09375 5.52034499,20.0312502 4.86409171,20 L4.86409171,15.3476562 C5.26563989,15.3476562 5.56680102,15.3476562 5.76757512,15.3476562 C5.90794686,15.3476562 6.11850447,15.3476562 6.39924796,15.3476562 C9.17269932,15.3476562 10.5594042,14.1875116 10.5594042,11.8671875 C10.5594042,9.6874891 9.19613659,8.59765625 6.46956046,8.59765625 L4.86409171,8.59765625 Z M23.8089355,15.002142 L23.8089355,20 C23.4495587,20.0625003 22.4417494,20.2460938 22.144873,20.2460938 C20.3870517,20.2460938 18.9222226,19.6679745 17.7503417,18.5117188 C16.5784608,17.355463 15.9925292,15.9062587 15.9925292,14.1640625 C15.9925292,12.4687415 16.5843202,11.0312559 17.7679198,9.8515625 C18.9515195,8.6718691 20.3909582,8.08203125 22.0862792,8.08203125 C23.9769137,8.08203125 25.4671331,8.6347601 26.5569823,9.74023438 C27.6468315,10.8457087 28.191748,12.3554592 28.191748,14.2695312 L28.191748,20 L23.8089355,20 L23.8089355,14.5859375 C23.8089355,13.9687469 23.6585463,13.4765643 23.3577636,13.109375 C23.0569808,12.7421857 22.652688,12.5585938 22.144873,12.5585938 C21.6839332,12.5585938 21.2854996,12.7265608 20.9495605,13.0625 C20.6136213,13.3984392 20.4456542,13.7968727 20.4456542,14.2578125 C20.4456542,14.7421899 20.5979964,15.1406234 20.9026855,15.453125 C21.2073745,15.7656266 21.5940894,15.921875 22.0628417,15.921875 C22.4456561,15.921875 23.4808088,15.205268 23.8089355,15.002142 Z M33.421748,8.31640625 L33.421748,20 L29.0389355,20 L29.0389355,8.31640625 L33.421748,8.31640625 Z M31.2420605,3.1015625 C31.8358134,3.1015625 32.3494802,3.31054479 32.7830761,3.72851562 C33.216672,4.14648646 33.4334667,4.64062215 33.4334667,5.2109375 C33.4334667,5.82031555 33.2283906,6.32031055 32.8182323,6.7109375 C32.408074,7.10156445 31.8826887,7.296875 31.2420605,7.296875 C30.6014323,7.296875 30.0760469,7.10156445 29.6658886,6.7109375 C29.2557303,6.32031055 29.0506542,5.82031555 29.0506542,5.2109375 C29.0506542,4.64062215 29.2674489,4.14648646 29.7010448,3.72851562 C30.1346407,3.31054479 30.6483075,3.1015625 31.2420605,3.1015625 Z M38.6751855,4.00390625 L38.6751855,20 L34.292373,20 L34.292373,4.00390625 L38.6751855,4.00390625 Z M41.0458105,25.1210938 L41.0458105,21.3125 C41.6395634,21.5625013 42.1590895,21.6875 42.6044042,21.6875 C44.0262863,21.6875 44.9481521,20.8867268 45.3700292,19.2851562 C44.6044004,19.7382835 43.8544079,19.9648438 43.1200292,19.9648438 C42.0340863,19.9648438 41.139564,19.5605509 40.4364355,18.7519531 C39.7333069,17.9433553 39.381748,16.9140687 39.381748,15.6640625 L39.381748,8.31640625 L43.7645605,8.31640625 L43.7645605,14.5976562 C43.7645605,15.2929722 44.0536201,15.640625 44.631748,15.640625 C45.1864382,15.640625 45.4637792,15.2578163 45.4637792,14.4921875 L45.4637792,8.31640625 L49.8465917,8.31640625 L49.8465917,18.7460938 C49.8465917,20.691416 49.2997222,22.2617128 48.2059667,23.4570312 C46.9012727,24.8789134 45.3231635,25.5898438 43.4715917,25.5898438 C42.6590876,25.5898438 41.850502,25.4335953 41.0458105,25.1210938 Z M55.4515917,14.4804688 L55.4515917,10.0390625 C56.412534,10.0390625 57.6664355,9.90625367 57.6664355,9.171875 C57.6664355,8.49999664 57.2992516,8.1640625 56.564873,8.1640625 C55.8226817,8.1640625 55.4515917,8.62499539 55.4515917,9.546875 L55.4515917,20 L50.6937792,20 L50.6937792,10.0390625 C50.6937792,9.00780734 50.7972938,8.16211268 51.0043261,7.50195312 C51.2113584,6.84179357 51.5648705,6.22656535 52.064873,5.65625 C52.6273758,5.02343434 53.3304937,4.52343934 54.174248,4.15625 C55.0180022,3.78906066 55.8890872,3.60546875 56.7875292,3.60546875 C58.4125373,3.60546875 59.7777581,4.15233828 60.8832323,5.24609375 C61.9887066,6.33984922 62.5414355,7.69530441 62.5414355,9.3125 C62.5414355,10.8828204 62.0453467,12.1562451 61.0531542,13.1328125 C60.1468997,14.0312545 58.7797258,14.4804688 56.9515917,14.4804688 L55.4515917,14.4804688 Z M63.4745605,8.48046875 L67.857373,8.48046875 L67.857373,15.078125 C67.857373,15.7421908 68.1347139,16.0742188 68.6894042,16.0742188 C69.2362819,16.0742188 69.5097167,15.7421908 69.5097167,15.078125 L69.5097167,8.48046875 L73.8925292,8.48046875 L73.8925292,14.9960938 C73.8925292,16.5117263 73.388628,17.7910104 72.3808105,18.8339844 C71.3729929,19.8769583 70.1386303,20.3984375 68.6776855,20.3984375 C67.0136146,20.3984375 65.6737843,19.7929748 64.6581542,18.5820312 C63.8690878,17.636714 63.4745605,16.3242271 63.4745605,14.6445312 L63.4745605,8.48046875 Z M78.8647167,24.3242188 L74.4819042,24.3242188 L74.4819042,14.5742188 C74.4819042,12.7851473 74.9506495,11.3281306 75.8881542,10.203125 C76.4272194,9.55468426 77.1127594,9.03906441 77.9447948,8.65625 C78.7768302,8.27343559 79.6303373,8.08203125 80.5053417,8.08203125 C82.2475379,8.08203125 83.7162732,8.66796289 84.9115917,9.83984375 C86.1069102,11.0117246 86.7045605,12.4492102 86.7045605,14.1523438 C86.7045605,15.808602 86.1108164,17.2382752 84.9233105,18.4414062 C83.7358045,19.6445373 82.3295686,20.2460938 80.7045605,20.2460938 C80.4389341,20.2460938 79.3803443,20.3007815 78.8647167,20.2460938 L78.8647167,15.4754009 C79.2240935,15.7644648 80.2514337,15.7695312 80.6108105,15.7695312 C81.0639377,15.7695312 81.4526057,15.6015642 81.7768261,15.265625 C82.1010465,14.9296858 82.2631542,14.5312523 82.2631542,14.0703125 C82.2631542,13.6093727 82.0951871,13.2167985 81.759248,12.8925781 C81.4233088,12.5683578 81.020969,12.40625 80.5522167,12.40625 C79.4272111,12.40625 78.8647167,13.183586 78.8647167,14.7382812 L78.8647167,24.3242188 Z M91.0439355,24.3242188 L86.661123,24.3242188 L86.661123,14.5742188 C86.661123,12.7851473 87.1298683,11.3281306 88.067373,10.203125 C88.6064382,9.55468426 89.2919782,9.03906441 90.1240136,8.65625 C90.956049,8.27343559 91.8095561,8.08203125 92.6845605,8.08203125 C94.4267567,8.08203125 95.895492,8.66796289 97.0908105,9.83984375 C98.2861289,11.0117246 98.8837792,12.4492102 98.8837792,14.1523438 C98.8837792,15.808602 98.2900351,17.2382752 97.1025292,18.4414062 C95.9150233,19.6445373 94.5087873,20.2460938 92.8837792,20.2460938 C92.6181529,20.2460938 91.559563,20.3007815 91.0439355,20.2460938 L91.0439355,15.1902207 C91.4033123,15.4792846 92.4306524,15.7695312 92.7900292,15.7695312 C93.2431565,15.7695312 93.6318245,15.6015642 93.9560448,15.265625 C94.2802652,14.9296858 94.442373,14.5312523 94.442373,14.0703125 C94.442373,13.6093727 94.2744059,13.2167985 93.9384667,12.8925781 C93.6025275,12.5683578 93.2001878,12.40625 92.7314355,12.40625 C91.6064298,12.40625 91.0439355,13.183586 91.0439355,14.7382812 L91.0439355,24.3242188 Z M100.609873,25.1210938 L100.609873,21.3125 C101.203626,21.5625013 101.723152,21.6875 102.168467,21.6875 C103.590349,21.6875 104.512215,20.8867268 104.934092,19.2851562 C104.168463,19.7382835 103.41847,19.9648438 102.684092,19.9648438 C101.598149,19.9648438 100.703626,19.5605509 100.000498,18.7519531 C99.2973694,17.9433553 98.9458105,16.9140687 98.9458105,15.6640625 L98.9458105,8.31640625 L103.328623,8.31640625 L103.328623,14.5976562 C103.328623,15.2929722 103.617683,15.640625 104.19581,15.640625 C104.750501,15.640625 105.027842,15.2578163 105.027842,14.4921875 L105.027842,8.31640625 L109.410654,8.31640625 L109.410654,18.7460938 C109.410654,20.691416 108.863785,22.2617128 107.770029,23.4570312 C106.465335,24.8789134 104.887226,25.5898438 103.035654,25.5898438 C102.22315,25.5898438 101.414564,25.4335953 100.609873,25.1210938 Z"></path> </g> </g> </svg>